<svg width="56" height="55" viewBox="0 0 56 55" fill="none" xmlns="http://www.w3.org/2000/svg">
<path d="M28 29.7917C29.2657 29.7917 30.2917 28.7656 30.2917 27.5C30.2917 26.2343 29.2657 25.2083 28 25.2083C26.7344 25.2083 25.7084 26.2343 25.7084 27.5C25.7084 28.7656 26.7344 29.7917 28 29.7917Z" fill="black"/>
<path d="M44.0417 29.7917C45.3073 29.7917 46.3334 28.7656 46.3334 27.5C46.3334 26.2343 45.3073 25.2083 44.0417 25.2083C42.776 25.2083 41.75 26.2343 41.75 27.5C41.75 28.7656 42.776 29.7917 44.0417 29.7917Z" fill="black"/>
<path d="M11.9584 29.7917C13.224 29.7917 14.25 28.7656 14.25 27.5C14.25 26.2343 13.224 25.2083 11.9584 25.2083C10.6927 25.2083 9.66669 26.2343 9.66669 27.5C9.66669 28.7656 10.6927 29.7917 11.9584 29.7917Z" fill="black"/>
<path d="M28 29.7917C29.2657 29.7917 30.2917 28.7656 30.2917 27.5C30.2917 26.2343 29.2657 25.2083 28 25.2083C26.7344 25.2083 25.7084 26.2343 25.7084 27.5C25.7084 28.7656 26.7344 29.7917 28 29.7917Z" stroke="#1E1E1E" stroke-width="4" stroke-linecap="round" stroke-linejoin="round"/>
<path d="M44.0417 29.7917C45.3073 29.7917 46.3334 28.7656 46.3334 27.5C46.3334 26.2343 45.3073 25.2083 44.0417 25.2083C42.776 25.2083 41.75 26.2343 41.75 27.5C41.75 28.7656 42.776 29.7917 44.0417 29.7917Z" stroke="#1E1E1E" stroke-width="4" stroke-linecap="round" stroke-linejoin="round"/>
<path d="M11.9584 29.7917C13.224 29.7917 14.25 28.7656 14.25 27.5C14.25 26.2343 13.224 25.2083 11.9584 25.2083C10.6927 25.2083 9.66669 26.2343 9.66669 27.5C9.66669 28.7656 10.6927 29.7917 11.9584 29.7917Z" stroke="#1E1E1E" stroke-width="4" stroke-linecap="round" stroke-linejoin="round"/>
</svg>
