<svg width="9" height="11" viewBox="0 0 9 11" fill="none" xmlns="http://www.w3.org/2000/svg">
<path d="M8.5 4.66667C8.5 7.58333 4.75 10.0833 4.75 10.0833C4.75 10.0833 1 7.58333 1 4.66667C1 3.6721 1.39509 2.71828 2.09835 2.01502C2.80161 1.31176 3.75544 0.916667 4.75 0.916667C5.74456 0.916667 6.69839 1.31176 7.40165 2.01502C8.10491 2.71828 8.5 3.6721 8.5 4.66667Z" stroke="#1E1E1E" stroke-linecap="round" stroke-linejoin="round"/>
<path d="M4.75 5.91667C5.44036 5.91667 6 5.35702 6 4.66667C6 3.97631 5.44036 3.41667 4.75 3.41667C4.05964 3.41667 3.5 3.97631 3.5 4.66667C3.5 5.35702 4.05964 5.91667 4.75 5.91667Z" stroke="#1E1E1E" stroke-linecap="round" stroke-linejoin="round"/>
</svg>
