<svg width="56" height="55" viewBox="0 0 56 55" fill="none" xmlns="http://www.w3.org/2000/svg">
<path d="M27.5111 29.7917C28.7768 29.7917 29.8028 28.7657 29.8028 27.5C29.8028 26.2344 28.7768 25.2083 27.5111 25.2083C26.2455 25.2083 25.2195 26.2344 25.2195 27.5C25.2195 28.7657 26.2455 29.7917 27.5111 29.7917Z" fill="black"/>
<path d="M43.5528 29.7917C44.8184 29.7917 45.8445 28.7657 45.8445 27.5C45.8445 26.2344 44.8184 25.2083 43.5528 25.2083C42.2871 25.2083 41.2611 26.2344 41.2611 27.5C41.2611 28.7657 42.2871 29.7917 43.5528 29.7917Z" fill="black"/>
<path d="M11.4695 29.7917C12.7351 29.7917 13.7611 28.7657 13.7611 27.5C13.7611 26.2344 12.7351 25.2083 11.4695 25.2083C10.2038 25.2083 9.1778 26.2344 9.1778 27.5C9.1778 28.7657 10.2038 29.7917 11.4695 29.7917Z" fill="black"/>
<path d="M27.5111 29.7917C28.7768 29.7917 29.8028 28.7657 29.8028 27.5C29.8028 26.2344 28.7768 25.2083 27.5111 25.2083C26.2455 25.2083 25.2195 26.2344 25.2195 27.5C25.2195 28.7657 26.2455 29.7917 27.5111 29.7917Z" stroke="#1E1E1E" stroke-width="4" stroke-linecap="round" stroke-linejoin="round"/>
<path d="M43.5528 29.7917C44.8184 29.7917 45.8445 28.7657 45.8445 27.5C45.8445 26.2344 44.8184 25.2083 43.5528 25.2083C42.2871 25.2083 41.2611 26.2344 41.2611 27.5C41.2611 28.7657 42.2871 29.7917 43.5528 29.7917Z" stroke="#1E1E1E" stroke-width="4" stroke-linecap="round" stroke-linejoin="round"/>
<path d="M11.4695 29.7917C12.7351 29.7917 13.7611 28.7657 13.7611 27.5C13.7611 26.2344 12.7351 25.2083 11.4695 25.2083C10.2038 25.2083 9.1778 26.2344 9.1778 27.5C9.1778 28.7657 10.2038 29.7917 11.4695 29.7917Z" stroke="#1E1E1E" stroke-width="4" stroke-linecap="round" stroke-linejoin="round"/>
</svg>
